# Blender 4.0.2
# www.blender.org
mtllib unity4.mtl
o Cube.003
v 0.679751 2.425507 -0.214785
v -0.784696 0.961060 -0.214785
v 0.679751 2.425507 0.214785
v -0.784696 0.961060 0.214785
v 0.418443 2.686815 -0.214785
v -1.046003 1.222368 -0.214785
v 0.418443 2.686815 0.214785
v -1.046003 1.222368 0.214785
v 0.386862 2.132617 -0.214785
v 0.093972 1.839728 -0.214785
v -0.198917 1.546839 -0.214785
v -0.491806 1.253949 -0.214785
v -0.753114 1.515257 0.214785
v -0.460225 1.808147 0.214785
v -0.167335 2.101036 0.214785
v 0.125554 2.393925 0.214785
v 0.386862 2.132617 0.214785
v 0.093972 1.839728 0.214785
v -0.198917 1.546839 0.214785
v -0.491806 1.253949 0.214785
v 0.125554 2.393925 -0.214785
v -0.167335 2.101036 -0.214785
v -0.460225 1.808147 -0.214785
v -0.753114 1.515257 -0.214785
v 0.973238 2.132020 -0.214785
v 0.973238 2.132020 0.214785
v 0.680349 1.839130 -0.214785
v 0.680349 1.839130 0.214785
v 1.336761 1.768496 -0.214785
v 1.336761 1.768496 0.214785
v 1.043872 1.475607 -0.214785
v 1.043872 1.475607 0.214785
v 1.813677 1.291580 -0.214785
v 1.813677 1.291580 0.214785
v 1.520788 0.998691 -0.214785
v 1.520788 0.998691 0.214785
v 0.568558 0.396380 -0.141524
v -0.396380 -0.568558 -0.141524
v 0.568558 0.396380 0.141524
v -0.396380 -0.568558 0.141524
v 0.396380 0.568558 -0.141524
v -0.568558 -0.396380 -0.141524
v 0.396380 0.568558 0.141524
v -0.568558 -0.396380 0.141524
v 0.375571 0.203392 -0.141524
v 0.182583 0.010405 -0.141524
v -0.010405 -0.182583 -0.141524
v -0.203392 -0.375570 -0.141524
v -0.375570 -0.203392 0.141524
v -0.182583 -0.010405 0.141524
v 0.010405 0.182583 0.141524
v 0.203392 0.375570 0.141524
v 0.375571 0.203392 0.141524
v 0.182583 0.010405 0.141524
v -0.010405 -0.182583 0.141524
v -0.203392 -0.375570 0.141524
v 0.203392 0.375570 -0.141524
v 0.010405 0.182583 -0.141524
v -0.182583 -0.010405 -0.141524
v -0.375570 -0.203392 -0.141524
v 0.761939 0.202998 -0.141524
v 0.761939 0.202998 0.141524
v 0.568952 0.010011 -0.141524
v 0.568952 0.010011 0.141524
v 1.001468 -0.036531 -0.141524
v 1.001468 -0.036531 0.141524
v 0.808481 -0.229518 -0.141524
v 0.808481 -0.229518 0.141524
v 1.315713 -0.350775 -0.141524
v 1.315713 -0.350775 0.141524
v 1.122725 -0.543763 -0.141524
v 1.122725 -0.543763 0.141524
v 0.557570 0.942096 -0.141524
v -0.407367 -0.022842 -0.141524
v 0.557570 0.942096 0.141524
v -0.407367 -0.022842 0.141524
v 0.385392 1.114274 -0.141524
v -0.579545 0.149336 -0.141524
v 0.385392 1.114274 0.141524
v -0.579545 0.149336 0.141524
v 0.364583 0.749108 -0.141524
v 0.171595 0.556121 -0.141524
v -0.021392 0.363133 -0.141524
v -0.214380 0.170146 -0.141524
v -0.386558 0.342324 0.141524
v -0.193570 0.535312 0.141524
v -0.000583 0.728299 0.141524
v 0.192405 0.921287 0.141524
v 0.364583 0.749108 0.141524
v 0.171595 0.556121 0.141524
v -0.021392 0.363133 0.141524
v -0.214380 0.170146 0.141524
v 0.192405 0.921287 -0.141524
v -0.000583 0.728299 -0.141524
v -0.193570 0.535312 -0.141524
v -0.386558 0.342324 -0.141524
v 0.750952 0.748715 -0.141524
v 0.750952 0.748715 0.141524
v 0.557964 0.555727 -0.141524
v 0.557964 0.555727 0.141524
v 0.990481 0.509186 -0.141524
v 0.990481 0.509186 0.141524
v 0.797493 0.316198 -0.141524
v 0.797493 0.316198 0.141524
v 1.304725 0.194941 -0.141524
v 1.304725 0.194941 0.141524
v 1.111738 0.001953 -0.141524
v 1.111738 0.001953 0.141524
v 0.557570 1.517112 -0.141524
v -0.407367 0.552175 -0.141524
v 0.557570 1.517112 0.141524
v -0.407367 0.552175 0.141524
v 0.385392 1.689291 -0.141524
v -0.579545 0.724353 -0.141524
v 0.385392 1.689291 0.141524
v -0.579545 0.724353 0.141524
v 0.364583 1.324125 -0.141524
v 0.171595 1.131137 -0.141524
v -0.021392 0.938150 -0.141524
v -0.214380 0.745162 -0.141524
v -0.386558 0.917340 0.141524
v -0.193570 1.110328 0.141524
v -0.000583 1.303316 0.141524
v 0.192405 1.496303 0.141524
v 0.364583 1.324125 0.141524
v 0.171595 1.131137 0.141524
v -0.021392 0.938150 0.141524
v -0.214380 0.745162 0.141524
v 0.192405 1.496303 -0.141524
v -0.000583 1.303316 -0.141524
v -0.193570 1.110328 -0.141524
v -0.386558 0.917340 -0.141524
v 0.750952 1.323731 -0.141524
v 0.750952 1.323731 0.141524
v 0.557964 1.130744 -0.141524
v 0.557964 1.130744 0.141524
v 0.990481 1.084202 -0.141524
v 0.990481 1.084202 0.141524
v 0.797493 0.891214 -0.141524
v 0.797493 0.891214 0.141524
v 1.304725 0.769958 -0.141524
v 1.304725 0.769958 0.141524
v 1.111738 0.576970 -0.141524
v 1.111738 0.576970 0.141524
vn 0.7071 0.7071 -0.0000
vn -0.0000 -0.0000 1.0000
vn -0.7071 0.7071 -0.0000
vn -0.7071 -0.7071 -0.0000
vn -0.0000 -0.0000 -1.0000
vn 0.7071 -0.7071 -0.0000
vt 0.625000 0.500000
vt 0.875000 0.500000
vt 0.875000 0.750000
vt 0.625000 0.750000
vt 0.575000 0.750000
vt 0.625000 1.000000
vt 0.575000 1.000000
vt 0.575000 0.000000
vt 0.625000 0.000000
vt 0.625000 0.250000
vt 0.575000 0.250000
vt 0.125000 0.500000
vt 0.375000 0.500000
vt 0.375000 0.750000
vt 0.125000 0.750000
vt 0.575000 0.500000
vt 0.375000 0.250000
vt 0.425000 0.250000
vt 0.425000 0.500000
vt 0.475000 0.250000
vt 0.475000 0.500000
vt 0.525000 0.250000
vt 0.525000 0.500000
vt 0.425000 0.750000
vt 0.475000 0.750000
vt 0.525000 0.750000
vt 0.375000 0.000000
vt 0.425000 0.000000
vt 0.475000 0.000000
vt 0.525000 0.000000
vt 0.425000 1.000000
vt 0.375000 1.000000
vt 0.475000 1.000000
vt 0.525000 1.000000
s 0
usemtl 
f 1/1/1 5/2/1 7/3/1 3/4/1
f 17/5/2 3/4/2 7/6/2 16/7/2
f 16/8/3 7/9/3 5/10/3 21/11/3
f 6/12/4 2/13/4 4/14/4 8/15/4
f 17/5/4 9/16/4 27/16/4 28/5/4
f 21/11/5 5/10/5 1/1/5 9/16/5
f 6/17/5 24/18/5 12/19/5 2/13/5
f 24/18/5 23/20/5 11/21/5 12/19/5
f 23/20/5 22/22/5 10/23/5 11/21/5
f 22/22/5 21/11/5 9/16/5 10/23/5
f 2/13/6 12/19/6 20/24/6 4/14/6
f 12/19/6 11/21/6 19/25/6 20/24/6
f 11/21/6 10/23/6 18/26/6 19/25/6
f 10/23/6 9/16/6 17/5/6 18/26/6
f 8/27/3 13/28/3 24/18/3 6/17/3
f 13/28/3 14/29/3 23/20/3 24/18/3
f 14/29/3 15/30/3 22/22/3 23/20/3
f 15/30/3 16/8/3 21/11/3 22/22/3
f 4/14/2 20/24/2 13/31/2 8/32/2
f 20/24/2 19/25/2 14/33/2 13/31/2
f 19/25/2 18/26/2 15/34/2 14/33/2
f 18/26/2 17/5/2 16/7/2 15/34/2
f 26/4/2 28/5/2 32/5/2 30/4/2
f 3/4/2 17/5/2 28/5/2 26/4/2
f 1/1/1 3/4/1 26/4/1 25/1/1
f 9/16/5 1/1/5 25/1/5 27/16/5
f 32/5/4 31/16/4 35/16/4 36/5/4
f 25/1/1 26/4/1 30/4/1 29/1/1
f 28/5/4 27/16/4 31/16/4 32/5/4
f 27/16/5 25/1/5 29/1/5 31/16/5
f 35/16/6 33/1/6 34/4/6 36/5/6
f 31/16/5 29/1/5 33/1/5 35/16/5
f 30/4/2 32/5/2 36/5/2 34/4/2
f 29/1/1 30/4/1 34/4/1 33/1/1
f 37/1/1 41/2/1 43/3/1 39/4/1
f 53/5/2 39/4/2 43/6/2 52/7/2
f 52/8/3 43/9/3 41/10/3 57/11/3
f 42/12/4 38/13/4 40/14/4 44/15/4
f 53/5/4 45/16/4 63/16/4 64/5/4
f 57/11/5 41/10/5 37/1/5 45/16/5
f 42/17/5 60/18/5 48/19/5 38/13/5
f 60/18/5 59/20/5 47/21/5 48/19/5
f 59/20/5 58/22/5 46/23/5 47/21/5
f 58/22/5 57/11/5 45/16/5 46/23/5
f 38/13/6 48/19/6 56/24/6 40/14/6
f 48/19/6 47/21/6 55/25/6 56/24/6
f 47/21/6 46/23/6 54/26/6 55/25/6
f 46/23/6 45/16/6 53/5/6 54/26/6
f 44/27/3 49/28/3 60/18/3 42/17/3
f 49/28/3 50/29/3 59/20/3 60/18/3
f 50/29/3 51/30/3 58/22/3 59/20/3
f 51/30/3 52/8/3 57/11/3 58/22/3
f 40/14/2 56/24/2 49/31/2 44/32/2
f 56/24/2 55/25/2 50/33/2 49/31/2
f 55/25/2 54/26/2 51/34/2 50/33/2
f 54/26/2 53/5/2 52/7/2 51/34/2
f 62/4/2 64/5/2 68/5/2 66/4/2
f 39/4/2 53/5/2 64/5/2 62/4/2
f 37/1/1 39/4/1 62/4/1 61/1/1
f 45/16/5 37/1/5 61/1/5 63/16/5
f 68/5/4 67/16/4 71/16/4 72/5/4
f 61/1/1 62/4/1 66/4/1 65/1/1
f 64/5/4 63/16/4 67/16/4 68/5/4
f 63/16/5 61/1/5 65/1/5 67/16/5
f 71/16/6 69/1/6 70/4/6 72/5/6
f 67/16/5 65/1/5 69/1/5 71/16/5
f 66/4/2 68/5/2 72/5/2 70/4/2
f 65/1/1 66/4/1 70/4/1 69/1/1
f 73/1/1 77/2/1 79/3/1 75/4/1
f 89/5/2 75/4/2 79/6/2 88/7/2
f 88/8/3 79/9/3 77/10/3 93/11/3
f 78/12/4 74/13/4 76/14/4 80/15/4
f 89/5/4 81/16/4 99/16/4 100/5/4
f 93/11/5 77/10/5 73/1/5 81/16/5
f 78/17/5 96/18/5 84/19/5 74/13/5
f 96/18/5 95/20/5 83/21/5 84/19/5
f 95/20/5 94/22/5 82/23/5 83/21/5
f 94/22/5 93/11/5 81/16/5 82/23/5
f 74/13/6 84/19/6 92/24/6 76/14/6
f 84/19/6 83/21/6 91/25/6 92/24/6
f 83/21/6 82/23/6 90/26/6 91/25/6
f 82/23/6 81/16/6 89/5/6 90/26/6
f 80/27/3 85/28/3 96/18/3 78/17/3
f 85/28/3 86/29/3 95/20/3 96/18/3
f 86/29/3 87/30/3 94/22/3 95/20/3
f 87/30/3 88/8/3 93/11/3 94/22/3
f 76/14/2 92/24/2 85/31/2 80/32/2
f 92/24/2 91/25/2 86/33/2 85/31/2
f 91/25/2 90/26/2 87/34/2 86/33/2
f 90/26/2 89/5/2 88/7/2 87/34/2
f 98/4/2 100/5/2 104/5/2 102/4/2
f 75/4/2 89/5/2 100/5/2 98/4/2
f 73/1/1 75/4/1 98/4/1 97/1/1
f 81/16/5 73/1/5 97/1/5 99/16/5
f 104/5/4 103/16/4 107/16/4 108/5/4
f 97/1/1 98/4/1 102/4/1 101/1/1
f 100/5/4 99/16/4 103/16/4 104/5/4
f 99/16/5 97/1/5 101/1/5 103/16/5
f 107/16/6 105/1/6 106/4/6 108/5/6
f 103/16/5 101/1/5 105/1/5 107/16/5
f 102/4/2 104/5/2 108/5/2 106/4/2
f 101/1/1 102/4/1 106/4/1 105/1/1
f 109/1/1 113/2/1 115/3/1 111/4/1
f 125/5/2 111/4/2 115/6/2 124/7/2
f 124/8/3 115/9/3 113/10/3 129/11/3
f 114/12/4 110/13/4 112/14/4 116/15/4
f 125/5/4 117/16/4 135/16/4 136/5/4
f 129/11/5 113/10/5 109/1/5 117/16/5
f 114/17/5 132/18/5 120/19/5 110/13/5
f 132/18/5 131/20/5 119/21/5 120/19/5
f 131/20/5 130/22/5 118/23/5 119/21/5
f 130/22/5 129/11/5 117/16/5 118/23/5
f 110/13/6 120/19/6 128/24/6 112/14/6
f 120/19/6 119/21/6 127/25/6 128/24/6
f 119/21/6 118/23/6 126/26/6 127/25/6
f 118/23/6 117/16/6 125/5/6 126/26/6
f 116/27/3 121/28/3 132/18/3 114/17/3
f 121/28/3 122/29/3 131/20/3 132/18/3
f 122/29/3 123/30/3 130/22/3 131/20/3
f 123/30/3 124/8/3 129/11/3 130/22/3
f 112/14/2 128/24/2 121/31/2 116/32/2
f 128/24/2 127/25/2 122/33/2 121/31/2
f 127/25/2 126/26/2 123/34/2 122/33/2
f 126/26/2 125/5/2 124/7/2 123/34/2
f 134/4/2 136/5/2 140/5/2 138/4/2
f 111/4/2 125/5/2 136/5/2 134/4/2
f 109/1/1 111/4/1 134/4/1 133/1/1
f 117/16/5 109/1/5 133/1/5 135/16/5
f 140/5/4 139/16/4 143/16/4 144/5/4
f 133/1/1 134/4/1 138/4/1 137/1/1
f 136/5/4 135/16/4 139/16/4 140/5/4
f 135/16/5 133/1/5 137/1/5 139/16/5
f 143/16/6 141/1/6 142/4/6 144/5/6
f 139/16/5 137/1/5 141/1/5 143/16/5
f 138/4/2 140/5/2 144/5/2 142/4/2
f 137/1/1 138/4/1 142/4/1 141/1/1
